<svg id="lineal" xmlns="http://www.w3.org/2000/svg" viewBox="0 0 316 552"><defs><style>.cls-1,.cls-2{fill:none;stroke:#fff;stroke-miterlimit:10;}.cls-1{stroke-dasharray:4 2;}.cls-2{stroke-dasharray:7.15 3.58;}</style></defs><title>4s</title><path class="cls-1" d="M234.62,4.84H77.17A39.47,39.47,0,0,0,37.8,44.18V437.6a39.47,39.47,0,0,0,39.36,39.34H234.62A39.47,39.47,0,0,0,274,437.6V44.18A39.47,39.47,0,0,0,234.62,4.84Z" transform="translate(2.06 34.92)"/><path class="cls-1" d="M96,62.08H76c-10.82,0-19.68-7.73-19.68-17.18S65.15,27.73,76,27.73H96c10.83,0,19.68,7.73,19.68,17.18S106.8,62.08,96,62.08Z" transform="translate(2.06 34.92)"/><path class="cls-2" d="M290.22,63.62h16.91c1.49-.13,5.65-1.18,6.22-8.76V21.44h0.1V-34.42H263.94v17.33a19.73,19.73,0,0,1-19.48,17H67.33A19.74,19.74,0,0,1,48-16.34V-34.42H-1.54V10.87c0,0.18,0,.35,0,0.53v459c0,0.78,0,1.56.07,2.33v43.87H47.8v-0.4h0.05c0-.15,0-0.3-0.05-0.46V499.19a19.74,19.74,0,0,1,19.53-17.34H244.46a19.73,19.73,0,0,1,19.62,18.45v14.62c0,0.43-.08.85-0.14,1.27h0.14v0.4h49.29V465.83h0V190.4c-0.56-7.46-4.6-8.6-6.15-8.76h-17a11.84,11.84,0,0,1-11.81-11.8V75.42A11.84,11.84,0,0,1,290.22,63.62Z" transform="translate(2.06 34.92)"/></svg>