<?xml version="1.0" encoding="utf-8"?>
<!-- Generator: Adobe Illustrator 18.0.0, SVG Export Plug-In . SVG Version: 6.00 Build 0)  -->
<!DOCTYPE svg PUBLIC "-//W3C//DTD SVG 1.1//EN" "http://www.w3.org/Graphics/SVG/1.1/DTD/svg11.dtd">
<svg version="1.1" id="Capa_1" xmlns="http://www.w3.org/2000/svg" xmlns:xlink="http://www.w3.org/1999/xlink" x="0px" y="0px"
	 viewBox="0 0 1133.9 283.5" enable-background="new 0 0 1133.9 283.5" xml:space="preserve">
<g>
	<g>
		<path fill="#0000FF" d="M58.2,157.7L52.1,173H27.9l33.8-87.7h24.9l33,87.7H95.3l-5.7-15.2H58.2z M74.1,112.4h-0.2l-9.4,27.9h19
			L74.1,112.4z"/>
	</g>
	<g>
		<path fill="#0000FF" d="M172.1,137l27.6,36h-28.4l-21.5-33.8h-0.3V173h-22.8V85.3h34.1c8.7,0.1,15.9,2.2,21.7,6.5
			c5.8,4.3,8.7,11.1,8.7,20.6c0,6-1.6,11.4-4.9,16.1c-3.3,4.7-8,7.6-14.2,8.7V137z M149.5,124.5h2.2c0.4,0.1,0.8,0.1,1.2,0.1
			c0.4,0,0.7,0,1,0c3.4-0.1,6.5-1,9.4-2.4c2.8-1.4,4.2-4.3,4.2-8.6s-1.4-7.2-4.2-8.6c-2.8-1.5-5.9-2.2-9.4-2.4c-0.3,0-0.7,0-1,0
			c-0.4,0-0.8,0-1.2,0h-2.2V124.5z"/>
	</g>
	<g>
		<path fill="#0000FF" d="M240.7,173h-22.8v-68.4H199V85.3h60.5v19.3h-18.8V173z"/>
	</g>
	<g>
		<path fill="#0000FF" d="M290.6,104.6v14.6h25.7v19.3h-25.7v15.1h27.1V173h-49.9V85.3h49.9v19.3H290.6z"/>
	</g>
	<g>
		<path fill="#0000FF" d="M381.3,85.3h22.5l17.8,46.9l18.8-46.9h22.7l13.3,87.7h-22.8l-6.4-50.5H447l-21,50.5h-9.1l-20.1-50.5h-0.2
			l-7.3,50.5h-22.7L381.3,85.3z"/>
	</g>
	<g>
		<path fill="#0000FF" d="M508.4,157.7l-6.1,15.2h-24.2l33.7-87.7h24.9l33,87.7h-24.3l-5.7-15.2H508.4z M524.4,112.4h-0.2l-9.4,27.9
			h19L524.4,112.4z"/>
	</g>
	<g>
		<path fill="#0000FF" d="M576.9,85.3h22.8l41.8,53.6h0.2V85.3h22.8V173h-22.8L600,119.2h-0.2V173h-22.8V85.3z"/>
	</g>
	<g>
		<path fill="#0000FF" d="M702.2,173h-22.8V85.3h22.8V173z"/>
	</g>
	<g>
		<path fill="#0000FF" d="M740,104.6v14.6h25v19.3h-25V173h-22.8V85.3h50.4v19.3H740z"/>
	</g>
	<g>
		<path fill="#0000FF" d="M803,173h-22.8V85.3H803V173z"/>
	</g>
	<g>
		<path fill="#0000FF" d="M840.7,104.6v14.6h25.7v19.3h-25.7v15.1h27.1V173h-49.9V85.3h49.9v19.3H840.7z"/>
	</g>
	<g>
		<path fill="#0000FF" d="M939.1,90.1l-9.1,17.7c-2.1-1.7-4.4-3.1-7-4.1c-2.6-1.1-5.3-1.6-8.1-1.6c-0.4,0-0.8,0-1.3,0
			c-0.5,0-0.9,0.2-1.4,0.3c-1.8,0.4-3.4,1.2-4.9,2.3c-1.5,1.2-2.2,2.7-2.2,4.7c0,1.8,0.7,3.3,2.1,4.5c1.4,1.1,2.9,2,4.5,2.7
			c0.6,0.2,1.2,0.4,1.8,0.6c0.6,0.2,1.2,0.4,1.7,0.5l5.8,1.6c6.1,1.8,11.3,4.5,15.4,8.1c4.2,3.5,6.2,8.9,6.2,16c0,0.3,0,0.6,0,0.9
			c0,0.3,0,0.6,0,0.9c-0.2,4-0.9,8-2.2,11.8c-1.3,3.9-3.6,7.2-6.9,10c-2.9,2.6-6.3,4.5-10,5.7c-3.7,1.2-7.5,2-11.4,2.3
			c-0.6,0-1.2,0-1.8,0c-0.6,0.1-1.1,0.1-1.7,0.1c-5.5,0-10.9-0.9-16.2-2.6c-5.3-1.7-10.1-4.2-14.6-7.3l9.8-18.5
			c2.9,2.6,6,4.7,9.4,6.5c3.4,1.8,7,2.7,10.9,2.7c0.2,0,0.3,0,0.5,0c0.1,0,0.3,0,0.5,0c2.5-0.2,4.9-0.9,7-2.4
			c2.1-1.4,3.2-3.6,3.2-6.5c0-2.2-0.9-3.9-2.6-5.2c-1.7-1.4-3.7-2.4-5.9-3.2c-1-0.3-1.9-0.6-2.8-0.9c-0.9-0.2-1.8-0.5-2.6-0.7
			c-0.2-0.1-0.3-0.1-0.5-0.2c-0.2-0.1-0.4-0.1-0.5-0.2c-6.9-1.9-12.4-4.4-16.5-7.4c-4.1-3-6.2-8.7-6.2-17c0-8.9,2.9-16,8.6-21.4
			c5.7-5.4,12.9-8.1,21.7-8.1c1.8,0,3.6,0.1,5.5,0.3c1.9,0.2,3.7,0.5,5.6,1c3,0.6,5.8,1.4,8.7,2.4C934.2,87.8,936.8,88.9,939.1,90.1
			L939.1,90.1z"/>
	</g>
	<g>
		<path fill="#0000FF" d="M988.5,173h-22.8v-68.4h-18.9V85.3h60.5v19.3h-18.8V173z"/>
	</g>
	<g>
		<path fill="#0000FF" d="M1059.7,82.3c12.6,0.1,23.9,4.3,33.7,12.8c9.9,8.4,14.8,19.2,14.8,32.5c0,14.2-4.6,25.8-13.7,34.8
			c-9.1,9-20.8,13.5-34.9,13.5c-14,0-25.7-4.5-34.8-13.5c-9.2-8.9-13.7-20.6-13.7-34.8c0-13.3,4.9-24.1,14.8-32.5
			c9.9-8.4,21.1-12.6,33.7-12.6V82.3z M1042.1,111.6c-4.8,4.7-7.3,10-7.3,16.1c0,7.6,2.4,13.8,7.3,18.7c4.8,4.9,10.7,7.5,17.5,7.5
			c6.8,0,12.7-2.5,17.5-7.5c4.8-5,7.3-11.2,7.3-18.8c0-6.1-2.4-11.5-7.3-16.2c-4.8-4.7-10.7-7-17.5-7
			C1052.9,104.5,1047,106.9,1042.1,111.6z"/>
	</g>
</g>
</svg>
