<?xml version="1.0" encoding="utf-8"?>
<!-- Generator: Adobe Illustrator 18.0.0, SVG Export Plug-In . SVG Version: 6.00 Build 0)  -->
<!DOCTYPE svg PUBLIC "-//W3C//DTD SVG 1.1//EN" "http://www.w3.org/Graphics/SVG/1.1/DTD/svg11.dtd">
<svg version="1.1" id="Capa_1" xmlns="http://www.w3.org/2000/svg" xmlns:xlink="http://www.w3.org/1999/xlink" x="0px" y="0px"
	 viewBox="0 0 566.9 566.9" enable-background="new 0 0 566.9 566.9" xml:space="preserve">
<g>
	<g>
		<g>
			<path fill="#0000FF" d="M258.2,104.7h21.2l16.8,47.9l17.8-47.9h21.4l12.5,89.6h-21.6l-6-51.6h-0.2l-19.9,51.6h-8.6l-19-51.6h-0.2
				l-6.9,51.6h-21.5L258.2,104.7z"/>
		</g>
	</g>
	<g>
		<g>
			<path fill="#0000FF" d="M179.3,355.1l-5.8,15.8h-23.3l32.4-91h23.9l31.7,91H215l-5.5-15.8H179.3z M194.6,308h-0.2l-9.1,29h18.2
				L194.6,308z"/>
		</g>
	</g>
	<g>
		<path fill="#0000FF" d="M296.1,517.7c-1.9,0-3.8-0.5-5.5-1.5L87.7,398.2c-3.4-2-5.4-5.6-5.4-9.5V155.5c0-3.9,2.1-7.5,5.5-9.5
			L290.6,29.2c3.4-2,7.6-1.9,11,0.1l198,116.8c3.3,2,5.4,5.6,5.4,9.5c0,3.9-2.1,7.5-5.4,9.4L317.6,270.9l182.2,108.9
			c3.3,2,5.3,5.6,5.3,9.4c0,3.9-2,7.4-5.4,9.4l-198,117.6C300,517.2,298,517.7,296.1,517.7z M104.2,382.4l191.9,111.6l176.7-104.9
			l-182.3-109c-3.3-2-5.4-5.6-5.3-9.5c0-3.9,2.1-7.5,5.4-9.4l182-105.9L296,51.4L104.2,161.8V382.4z"/>
	</g>
	<g>
		<path fill="#0000FF" d="M296.1,517.7c-6,0-11-4.9-11-10.9l-0.1-229.6L87.8,165c-5.3-3-7.1-9.7-4.1-14.9c3-5.3,9.7-7.1,14.9-4.1
			l202.8,115.3c3.4,1.9,5.5,5.6,5.5,9.5l0.1,236C307.1,512.8,302.2,517.7,296.1,517.7C296.1,517.7,296.1,517.7,296.1,517.7z"/>
	</g>
</g>
</svg>
