<?xml version="1.0" encoding="utf-8"?>
<!-- Generator: Adobe Illustrator 18.0.0, SVG Export Plug-In . SVG Version: 6.00 Build 0)  -->
<!DOCTYPE svg PUBLIC "-//W3C//DTD SVG 1.1//EN" "http://www.w3.org/Graphics/SVG/1.1/DTD/svg11.dtd">
<svg version="1.1" id="Capa_1" xmlns="http://www.w3.org/2000/svg" xmlns:xlink="http://www.w3.org/1999/xlink" x="0px" y="0px"
	 viewBox="0 0 566.9 560" enable-background="new 0 0 566.9 560" xml:space="preserve">
<g>
	<g>
		<path fill="#0000FF" d="M247,94.5h18.5l14.7,41.7l15.5-41.7h18.7l10.9,78.1h-18.8l-5.3-44.9h-0.2l-17.4,44.9h-7.5l-16.6-44.9h-0.2
			l-6,44.9h-18.7L247,94.5z"/>
	</g>
</g>
<g>
	<g>
		<path fill="#0000FF" d="M110,525.9l-2.1,5.3h-8.4l11.7-30.4h8.6l11.5,30.4h-8.4l-2-5.3H110z M115.5,510.2L115.5,510.2l-3.3,9.7
			h6.6L115.5,510.2z"/>
	</g>
	<g>
		<path fill="#0000FF" d="M149.5,518.7l9.6,12.5h-9.8l-7.5-11.7h-0.1v11.7h-7.9v-30.4h11.8c3,0,5.5,0.8,7.5,2.3c2,1.5,3,3.9,3,7.1
			c0,2.1-0.6,4-1.7,5.6C153.3,517.4,151.6,518.4,149.5,518.7L149.5,518.7z M141.6,514.4h0.8c0.1,0,0.3,0,0.4,0c0.1,0,0.3,0,0.4,0
			c1.2,0,2.3-0.3,3.2-0.8c1-0.5,1.5-1.5,1.5-3s-0.5-2.5-1.5-3c-1-0.5-2.1-0.8-3.2-0.8c-0.1,0-0.2,0-0.4,0c-0.1,0-0.3,0-0.4,0h-0.8
			V514.4z"/>
	</g>
	<g>
		<path fill="#0000FF" d="M173.3,531.2h-7.9v-23.7h-6.5v-6.7h21v6.7h-6.5V531.2z"/>
	</g>
	<g>
		<path fill="#0000FF" d="M190.6,507.5v5.1h8.9v6.7h-8.9v5.2h9.4v6.7h-17.3v-30.4H200v6.7H190.6z"/>
	</g>
	<g>
		<path fill="#0000FF" d="M222,500.8h7.8l6.2,16.2l6.5-16.2h7.9l4.6,30.4h-7.9l-2.2-17.5h-0.1l-7.3,17.5h-3.1l-7-17.5h-0.1
			l-2.5,17.5h-7.9L222,500.8z"/>
	</g>
	<g>
		<path fill="#0000FF" d="M266.1,525.9l-2.1,5.3h-8.4l11.7-30.4h8.6l11.5,30.4h-8.4l-2-5.3H266.1z M271.6,510.2L271.6,510.2
			l-3.4,9.7h6.6L271.6,510.2z"/>
	</g>
	<g>
		<path fill="#0000FF" d="M289.8,500.8h7.9l14.5,18.6h0.1v-18.6h7.9v30.4h-7.9l-14.5-18.6h-0.1v18.6h-7.9V500.8z"/>
	</g>
	<g>
		<path fill="#0000FF" d="M333.3,531.2h-7.9v-30.4h7.9V531.2z"/>
	</g>
	<g>
		<path fill="#0000FF" d="M346.3,507.5v5.1h8.7v6.7h-8.7v11.9h-7.9v-30.4h17.5v6.7H346.3z"/>
	</g>
	<g>
		<path fill="#0000FF" d="M368.2,531.2h-7.9v-30.4h7.9V531.2z"/>
	</g>
	<g>
		<path fill="#0000FF" d="M381.3,507.5v5.1h8.9v6.7h-8.9v5.2h9.4v6.7h-17.3v-30.4h17.3v6.7H381.3z"/>
	</g>
	<g>
		<path fill="#0000FF" d="M415.4,502.5l-3.2,6.1c-0.7-0.6-1.5-1.1-2.4-1.4c-0.9-0.4-1.8-0.5-2.8-0.5c-0.1,0-0.3,0-0.5,0
			c-0.2,0-0.3,0.1-0.5,0.1c-0.6,0.1-1.2,0.4-1.7,0.8c-0.5,0.4-0.8,1-0.8,1.6c0,0.6,0.2,1.2,0.7,1.5c0.5,0.4,1,0.7,1.6,1
			c0.2,0.1,0.4,0.1,0.6,0.2c0.2,0.1,0.4,0.1,0.6,0.2l2,0.6c2.1,0.6,3.9,1.6,5.3,2.8c1.4,1.2,2.2,3.1,2.2,5.5c0,0.1,0,0.2,0,0.3
			c0,0.1,0,0.2,0,0.3c-0.1,1.4-0.3,2.8-0.8,4.1c-0.5,1.3-1.2,2.5-2.4,3.5c-1,0.9-2.2,1.5-3.5,2c-1.3,0.4-2.6,0.7-4,0.8
			c-0.2,0-0.4,0-0.6,0c-0.2,0-0.4,0-0.6,0c-1.9,0-3.8-0.3-5.6-0.9c-1.8-0.6-3.5-1.4-5.1-2.5l3.4-6.4c1,0.9,2.1,1.6,3.3,2.3
			c1.2,0.6,2.4,0.9,3.8,0.9c0.1,0,0.1,0,0.2,0c0,0,0.1,0,0.2,0c0.9-0.1,1.7-0.3,2.4-0.8c0.7-0.5,1.1-1.2,1.1-2.2
			c0-0.8-0.3-1.4-0.9-1.8c-0.6-0.5-1.3-0.8-2-1.1c-0.3-0.1-0.6-0.2-1-0.3c-0.3-0.1-0.6-0.2-0.9-0.3c-0.1,0-0.1,0-0.2-0.1
			c-0.1,0-0.1,0-0.2-0.1c-2.4-0.7-4.3-1.5-5.7-2.6c-1.4-1-2.1-3-2.1-5.9c0-3.1,1-5.6,3-7.4c2-1.9,4.5-2.8,7.5-2.8
			c0.6,0,1.2,0,1.9,0.1c0.6,0.1,1.3,0.2,1.9,0.4c1,0.2,2,0.5,3,0.8C413.7,501.7,414.6,502.1,415.4,502.5L415.4,502.5z"/>
	</g>
	<g>
		<path fill="#0000FF" d="M432.5,531.2h-7.9v-23.7H418v-6.7h21v6.7h-6.5V531.2z"/>
	</g>
	<g>
		<path fill="#0000FF" d="M457.2,499.8c4.4,0,8.3,1.5,11.7,4.4c3.4,2.9,5.1,6.7,5.1,11.3c0,4.9-1.6,8.9-4.7,12
			c-3.2,3.1-7.2,4.7-12.1,4.7c-4.9,0-8.9-1.6-12.1-4.7c-3.2-3.1-4.8-7.1-4.8-12c0-4.6,1.7-8.4,5.1-11.3
			C448.9,501.3,452.8,499.8,457.2,499.8L457.2,499.8z M451.1,509.9c-1.7,1.6-2.5,3.5-2.5,5.6c0,2.6,0.8,4.8,2.5,6.5
			c1.7,1.7,3.7,2.6,6.1,2.6c2.4,0,4.4-0.9,6.1-2.6c1.7-1.7,2.5-3.9,2.5-6.5c0-2.1-0.8-4-2.5-5.6c-1.7-1.6-3.7-2.4-6.1-2.4
			C454.8,507.5,452.8,508.3,451.1,509.9z"/>
	</g>
</g>
<g>
	<g>
		<path fill="#0000FF" d="M178.3,312.7l-5.1,13.8h-20.3l28.3-79.3H202l27.7,79.3h-20.4l-4.8-13.8H178.3z M191.6,271.7h-0.2
			l-7.9,25.3h15.9L191.6,271.7z"/>
	</g>
</g>
<g>
	<path fill="#0000FF" d="M280.1,454.4c-1.7,0-3.3-0.4-4.8-1.3L98.4,350.3c-2.9-1.7-4.7-4.9-4.7-8.3V138.8c0-3.4,1.8-6.6,4.8-8.3
		L275.3,28.7c3-1.7,6.7-1.7,9.6,0.1l172.6,101.8c2.9,1.7,4.7,4.9,4.7,8.3c0,3.4-1.8,6.5-4.7,8.2l-158.7,92.3l158.8,94.9
		c2.9,1.7,4.7,4.8,4.7,8.2c0,3.4-1.8,6.5-4.7,8.2L284.9,453.1C283.4,454,281.7,454.4,280.1,454.4z M112.8,336.5L280,433.8l154-91.4
		l-158.9-95c-2.9-1.7-4.7-4.9-4.7-8.3c0-3.4,1.8-6.5,4.7-8.2l158.6-92.3L280,48l-167.2,96.3V336.5z"/>
</g>
<g>
	<path fill="#0000FF" d="M280.1,454.4c-5.3,0-9.5-4.3-9.5-9.5l-0.1-200.1L98.5,147.1c-4.6-2.6-6.2-8.4-3.6-13
		c2.6-4.6,8.4-6.2,13-3.6l176.7,100.5c3,1.7,4.8,4.9,4.8,8.3l0.1,205.6C289.6,450.2,285.3,454.4,280.1,454.4
		C280.1,454.4,280.1,454.4,280.1,454.4z"/>
</g>
</svg>
